<svg xmlns="http://www.w3.org/2000/svg" version="1.1" xmlns:xlink="http://www.w3.org/1999/xlink" width="512" height="512" x="0" y="0" viewBox="0 0 512.009 512.009" style="enable-background:new 0 0 512 512" xml:space="preserve"><g><path d="M.005 124.412 58.874.001h394.263l58.867 124.411-236.077 68.96" style="" fill="#e9bb91" data-original="#e9bb91"></path><path d="M.005 124.416h511.999V512.01H.005z" style="" fill="#ca936c" data-original="#ca936c"></path><path d="M296.3 124.416v107.593h-80.593V124.416L224.975 0h62.057zM215.703 404.406h80.593v107.593h-80.593z" style="" fill="#764f43" data-original="#764f43"></path><path d="M215.708 124.412 224.975.001h62.06l9.267 124.411" style="" fill="#8e6459" data-original="#8e6459"></path><path d="m46.265 386.756 12.988-12.988v62.022c0 4.328 3.508 7.837 7.837 7.837s7.837-3.509 7.837-7.837v-62.022l12.987 12.987a7.812 7.812 0 0 0 5.542 2.296 7.813 7.813 0 0 0 5.542-2.296 7.835 7.835 0 0 0 0-11.082l-26.365-26.366a7.837 7.837 0 0 0-11.084 0l-26.366 26.366a7.835 7.835 0 0 0 0 11.082 7.835 7.835 0 0 0 11.082.001zM124.629 386.756l12.987-12.987v62.022a7.837 7.837 0 0 0 7.837 7.837 7.837 7.837 0 0 0 7.837-7.837v-62.022l12.987 12.987a7.812 7.812 0 0 0 5.542 2.296 7.813 7.813 0 0 0 5.542-2.296 7.835 7.835 0 0 0 0-11.082l-26.365-26.366a7.837 7.837 0 0 0-11.084 0l-26.365 26.366a7.837 7.837 0 0 0 11.082 11.082zM171.312 455.12H41.229a7.837 7.837 0 0 0-7.837 7.837 7.837 7.837 0 0 0 7.837 7.837h130.082a7.837 7.837 0 0 0 7.837-7.837 7.836 7.836 0 0 0-7.836-7.837z" style="" fill="#764f43" data-original="#764f43"></path><path d="M333.39 177.695h139.483v108.147H333.39z" style="" fill="#f5ffff" data-original="#f5ffff"></path><path d="M443.624 220.83h-79.93c-4.329 0-7.837-3.509-7.837-7.837s3.508-7.837 7.837-7.837h79.93c4.329 0 7.837 3.509 7.837 7.837s-3.508 7.837-7.837 7.837zM443.624 258.383h-79.93c-4.329 0-7.837-3.509-7.837-7.837s3.508-7.837 7.837-7.837h79.93c4.329 0 7.837 3.509 7.837 7.837s-3.508 7.837-7.837 7.837z" style="" fill="#764f43" data-original="#764f43"></path></g></svg>