<svg xmlns="http://www.w3.org/2000/svg" version="1.1" xmlns:xlink="http://www.w3.org/1999/xlink" width="512" height="512" x="0" y="0" viewBox="0 0 64 64" style="enable-background:new 0 0 512 512" xml:space="preserve"><g><path fill="#c18e5c" d="M42 20h12v10H42z" opacity="1" data-original="#c18e5c"></path><path fill="#cda57d" d="M42 20v8c5.483 0 10.015-3.468 10.85-8z" opacity="1" data-original="#cda57d"></path><path fill="#c18e5c" d="M10 38h44v16H10z" opacity="1" data-original="#c18e5c"></path><path fill="#cda57d" d="M10 38v13.732c1.634.173 3.302.268 5 .268 13.501 0 25.209-5.682 31.047-14z" opacity="1" data-original="#cda57d"></path><g fill="#666e77"><path d="M6 12h52v4H6zM6 30h52v4H6zM6 54h52v4H6z" fill="#666e77" opacity="1" data-original="#666e77"></path></g><path fill="#88929f" d="M2 2h4v60H2zM58 2h4v60h-4z" opacity="1" data-original="#88929f"></path><path fill="#e1c9b1" d="M46 20h4v4h-4z" opacity="1" data-original="#e1c9b1"></path><path fill="#c18e5c" d="M26 20h12v10H26z" opacity="1" data-original="#c18e5c"></path><path fill="#cda57d" d="M26 20v8c5.483 0 10.015-3.468 10.85-8z" opacity="1" data-original="#cda57d"></path><path fill="#e1c9b1" d="M30 20h4v4h-4z" opacity="1" data-original="#e1c9b1"></path><path fill="#c18e5c" d="M10 20h12v10H10z" opacity="1" data-original="#c18e5c"></path><path fill="#cda57d" d="M10 20v8c5.483 0 10.015-3.468 10.85-8z" opacity="1" data-original="#cda57d"></path><path fill="#e1c9b1" d="M14 20h4v4h-4z" opacity="1" data-original="#e1c9b1"></path><path fill="#c18e5c" d="M42 2h12v10H42z" opacity="1" data-original="#c18e5c"></path><path fill="#cda57d" d="M42 2v8c5.483 0 10.015-3.468 10.85-8z" opacity="1" data-original="#cda57d"></path><path fill="#e1c9b1" d="M46 2h4v4h-4z" opacity="1" data-original="#e1c9b1"></path><path fill="#c18e5c" d="M26 2h12v10H26z" opacity="1" data-original="#c18e5c"></path><path fill="#cda57d" d="M26 2v8c5.483 0 10.015-3.468 10.85-8z" opacity="1" data-original="#cda57d"></path><path fill="#e1c9b1" d="M30 2h4v4h-4z" opacity="1" data-original="#e1c9b1"></path><path fill="#c18e5c" d="M10 2h12v10H10z" opacity="1" data-original="#c18e5c"></path><path fill="#cda57d" d="M10 2v8c5.483 0 10.015-3.468 10.85-8z" opacity="1" data-original="#cda57d"></path><path fill="#e1c9b1" d="M14 2h4v4h-4zM29 38h6v8h-6zM47 49h4v2h-4zM47 45h4v2h-4z" opacity="1" data-original="#e1c9b1"></path></g></svg>