<svg xmlns="http://www.w3.org/2000/svg" version="1.1" xmlns:xlink="http://www.w3.org/1999/xlink" width="512" height="512" x="0" y="0" viewBox="0 0 488 488" style="enable-background:new 0 0 512 512" xml:space="preserve" class=""><g><path fill="#e6e9ed" d="M72.098 8h240.047v72H72.098zm0 0" opacity="1" data-original="#e6e9ed"></path><path fill="#aab2bd" d="M368.16 468c0 11.047-8.953 20-20 20s-20-8.953-20-20 8.953-20 20-20 20 8.953 20 20zM56.16 468c0 11.047-8.953 20-20 20s-20-8.953-20-20 8.953-20 20-20 20 8.953 20 20zm0 0" opacity="1" data-original="#aab2bd"></path><path fill="#545c66" d="M384 448c0 4.406-3.602 8-8 8H8c-4.398 0-8-3.594-8-8V39.922c0-4.395 3.602-8 8-8h368c4.398 0 8 3.605 8 8zm0 0" opacity="1" data-original="#545c66" class=""></path><path fill="#434a54" d="M56.078 79.938V88h-24v-8.063zM352.078 79.938V88H328.16v-8.063zm0 0" opacity="1" data-original="#434a54" class=""></path><path fill="#545c66" d="M344.078 247.984c4.402 0 8 3.61 8 8V416c0 4.406-3.598 8-8 8h-304c-4.398 0-8-3.594-8-8V255.984c0-4.39 3.602-8 8-8zm0 0" opacity="1" data-original="#545c66" class=""></path><path fill="#434a54" d="M344.078 428h-304c-6.613 0-12-5.375-12-12V87.832c0-6.625 5.387-12 12-12h304c6.617 0 12 5.375 12 12V416c0 6.625-5.383 12-12 12zm-304-344.168c-2.2 0-4 1.8-4 4V416c0 2.2 1.8 4 4 4h304c2.203 0 4-1.8 4-4V87.832c0-2.2-1.797-4-4-4zm0 0" opacity="1" data-original="#434a54" class=""></path><path fill="#656d78" d="M356.168 88c4.398 0 8 3.61 8 8v160c0 4.406-3.602 8-8 8H28.09c-4.402 0-8-3.594-8-8V96c0-4.39 3.598-8 8-8h312.086zm0 0" opacity="1" data-original="#656d78" class=""></path><path fill="#ccd1d9" d="M232.137 191.984h-80.008c-4.426 0-8-3.578-8-8 0-4.425 3.574-8 8-8h80.008c4.422 0 8 3.575 8 8a8 8 0 0 1-8 8zm0 0" opacity="1" data-original="#ccd1d9" class=""></path><path fill="#ccd1d9" d="M152.129 191.984c-4.426 0-8-3.578-8-8V176c0-4.426 3.574-8 8-8 4.422 0 8 3.574 8 8v7.984a8 8 0 0 1-8 8zM232.137 191.984c-4.426 0-8-3.578-8-8V176c0-4.426 3.574-8 8-8 4.422 0 8 3.574 8 8v7.984a8 8 0 0 1-8 8zm0 0" opacity="1" data-original="#ccd1d9" class=""></path><g fill="#aab2bd"><path d="M232.137 352.145h-80.008c-4.426 0-8-3.579-8-8 0-4.426 3.574-8 8-8h80.008c4.422 0 8 3.574 8 8a8 8 0 0 1-8 8zm0 0" fill="#aab2bd" opacity="1" data-original="#aab2bd"></path><path d="M152.129 352.145c-4.426 0-8-3.579-8-8v-7.985c0-4.426 3.574-8 8-8 4.422 0 8 3.574 8 8v7.985c0 4.414-3.586 8-8 8zM232.137 352.145c-4.426 0-8-3.579-8-8v-7.985c0-4.426 3.574-8 8-8 4.422 0 8 3.574 8 8v7.985c0 4.414-3.586 8-8 8zm0 0" fill="#aab2bd" opacity="1" data-original="#aab2bd"></path></g><path fill="#ffce54" d="M328.16 31.922V88H56.078V16h16V0h72.082l16 16h168zm0 0" opacity="1" data-original="#ffce54"></path></g></svg>