<svg xmlns="http://www.w3.org/2000/svg" version="1.1" xmlns:xlink="http://www.w3.org/1999/xlink" width="512" height="512" x="0" y="0" viewBox="0 0 60 60" style="enable-background:new 0 0 512 512" xml:space="preserve"><g><path fill="#e2ebed" d="M22 10h30c1.1 0 2 .9 2 2v7H22z" opacity="1" data-original="#e2ebed"></path><path fill="#ffbc00" d="M54 55H6a5 5 0 0 1-5-5V10a5 5 0 0 1 5-5h10.5a5 5 0 0 1 4 2l6 8a5 5 0 0 0 4 2H54a5 5 0 0 1 5 5v28a5 5 0 0 1-5 5z" opacity="1" data-original="#ffbc00"></path><rect width="22" height="7" x="28" y="23" fill="#ffffff" rx="1" opacity="1" data-original="#ffffff"></rect></g></svg>